<svg width="65" height="65" viewBox="0 0 65 65" fill="none" xmlns="http://www.w3.org/2000/svg">
<rect width="65" height="65" rx="17" fill="#383838"/>
<g clip-path="url(#clip0_1_2582)">
<path d="M34.5 41.75C34.5 43.125 33.375 44.25 32 44.25C30.625 44.25 29.5 43.125 29.5 41.75C29.5 40.375 30.625 39.25 32 39.25C33.375 39.25 34.5 40.375 34.5 41.75ZM18.6625 26.8375C18.2 27.25 17.75 27.7 17.325 28.15C16.85 28.65 16.8875 29.45 17.3875 29.9125C17.625 30.1375 17.9375 30.25 18.2375 30.25C18.575 30.25 18.9125 30.1125 19.15 29.85C19.525 29.45 19.9125 29.0625 20.3125 28.7C20.825 28.2375 20.875 27.45 20.4125 26.9375C19.95 26.425 19.1625 26.375 18.65 26.8375H18.6625ZM24.975 32.8875C24.475 33.275 24.0125 33.7 23.5875 34.1625C23.1125 34.675 23.15 35.4625 23.65 35.925C23.8875 36.15 24.2 36.2625 24.5 36.2625C24.8375 36.2625 25.175 36.125 25.4125 35.8625C25.75 35.5 26.1125 35.1625 26.5 34.8625C27.05 34.4375 27.15 33.65 26.725 33.1125C26.3 32.5625 25.5125 32.4625 24.975 32.8875ZM33.9875 33.2125C35.725 33.6125 37.3375 34.5375 38.5625 35.85C38.8125 36.1125 39.1375 36.25 39.475 36.25C39.775 36.25 40.0875 36.1375 40.325 35.9125C40.825 35.4375 40.8625 34.65 40.3875 34.15C38.0875 31.6625 34.7125 30.325 31.3625 30.5C31.3375 30.5 31.3 30.5 31.275 30.5L26.05 25.2875C27.95 24.6 29.95 24.25 32 24.25C36.85 24.25 41.525 26.2875 44.8375 29.85C45.0875 30.1125 45.4125 30.25 45.75 30.25C46.05 30.25 46.3625 30.1375 46.6 29.9125C47.1 29.4375 47.1375 28.65 46.6625 28.15C42.8875 24.0875 37.5375 21.75 32 21.75C29.2625 21.75 26.6125 22.2875 24.125 23.3625L19.1375 18.3625C18.65 17.875 17.85 17.875 17.3625 18.3625C16.875 18.85 16.875 19.65 17.3625 20.1375L44.8625 47.6375C45.1125 47.8875 45.425 48 45.75 48C46.075 48 46.3875 47.875 46.6375 47.6375C47.125 47.15 47.125 46.3625 46.6375 45.875L34 33.225L33.9875 33.2125Z" fill="#0CBA70"/>
</g>
<defs>
<clipPath id="clip0_1_2582">
<rect width="30" height="30" fill="white" transform="translate(17 18)"/>
</clipPath>
</defs>
</svg>
